<?xml version="1.0" standalone="no"?>
<!DOCTYPE svg PUBLIC "-//W3C//DTD SVG 20010904//EN"
 "http://www.w3.org/TR/2001/REC-SVG-20010904/DTD/svg10.dtd">
<svg version="1.0" xmlns="http://www.w3.org/2000/svg"
 width="1600.000000pt" height="987.000000pt" viewBox="0 0 1600.000000 987.000000"
 preserveAspectRatio="xMidYMid meet">

<g transform="translate(0.000000,987.000000) scale(0.100000,-0.100000)"
fill="#000000" stroke="none">
<path d="M6170 9271 c-96 -21 -218 -67 -279 -105 -22 -14 -43 -26 -47 -26 -12
0 -129 -98 -175 -147 -110 -115 -194 -268 -235 -428 -60 -231 -23 -532 103
-855 60 -152 171 -368 195 -378 4 -2 8 -8 8 -14 0 -8 65 -102 112 -163 314
-406 741 -817 1254 -1207 l61 -47 129 100 c465 362 972 859 1204 1182 19 27
44 60 56 75 97 125 233 411 297 622 71 236 92 485 53 653 -51 225 -172 416
-351 556 -102 80 -232 143 -365 177 -115 29 -336 27 -450 -5 -124 -34 -292
-117 -351 -173 -8 -7 -34 -29 -59 -49 -25 -20 -72 -71 -105 -113 l-60 -77 -18
23 c-128 165 -223 246 -371 318 -142 69 -233 91 -391 96 -101 3 -149 0 -215
-15z m716 -859 c6 -4 16 -16 21 -27 6 -11 55 -288 108 -615 54 -327 100 -597
102 -599 2 -2 5 -2 7 0 4 3 87 290 152 525 20 72 35 88 78 88 20 0 41 -5 47
-11 6 -6 36 -89 68 -184 l57 -174 77 -3 c49 -2 77 1 77 8 0 25 74 90 121 105
83 28 159 3 215 -70 22 -30 29 -51 32 -100 5 -70 -10 -107 -59 -155 -80 -76
-226 -60 -286 32 l-26 38 -106 0 c-135 0 -142 5 -176 112 -14 44 -28 85 -32
91 -7 11 -27 -54 -128 -418 -44 -158 -74 -248 -88 -262 -25 -27 -57 -29 -86
-5 -20 15 -33 80 -121 612 -55 327 -100 600 -101 605 0 6 -34 -150 -74 -345
-62 -298 -78 -358 -96 -372 -18 -16 -44 -18 -183 -18 -130 0 -166 3 -184 16
-29 20 -30 76 -2 104 18 18 33 20 148 20 l127 0 29 133 c155 721 185 852 202
864 19 14 63 17 80 5z"/>
<path d="M4085 8033 c-11 -2 -45 -13 -75 -23 -30 -10 -89 -21 -130 -25 -87 -8
-133 -27 -159 -64 -10 -14 -44 -77 -76 -139 -88 -175 -87 -267 6 -342 42 -33
72 -90 63 -118 -5 -14 -4 -15 5 -2 9 12 11 9 11 -17 0 -83 45 -26 49 62 8 202
97 311 222 271 59 -20 89 -20 123 -2 14 7 47 12 73 11 42 -2 51 -6 97 -57 59
-63 110 -159 127 -238 15 -66 13 -62 32 -54 9 3 21 21 27 39 6 18 22 41 36 50
40 26 54 73 54 180 0 58 6 119 16 155 29 102 0 135 -130 150 -67 8 -70 10
-120 62 -29 30 -72 64 -97 75 -46 22 -119 34 -154 26z"/>
<path d="M10310 7524 c-106 -19 -229 -61 -268 -90 -20 -16 -48 -56 -72 -105
-22 -44 -53 -99 -69 -122 -37 -51 -48 -92 -31 -112 19 -23 84 -18 143 11 71
35 105 28 192 -36 94 -69 123 -77 186 -50 90 38 116 7 129 -157 9 -113 21
-142 81 -191 16 -13 41 -45 57 -70 26 -45 27 -52 24 -163 -2 -83 2 -128 13
-158 32 -91 118 -167 225 -198 78 -22 97 -38 131 -105 64 -126 151 -188 277
-196 78 -5 86 1 48 37 -14 13 -32 38 -40 56 -15 30 -14 37 5 91 11 33 23 95
26 140 8 109 -12 172 -78 255 -28 35 -71 98 -95 140 -24 42 -72 105 -105 140
-95 101 -193 322 -235 531 -24 123 -59 180 -132 217 -33 17 -73 48 -95 75 -61
73 -151 90 -317 60z"/>
<path d="M3815 7170 c3 -5 8 -10 11 -10 2 0 4 5 4 10 0 6 -5 10 -11 10 -5 0
-7 -4 -4 -10z"/>
<path d="M4330 7170 c0 -5 5 -10 10 -10 6 0 10 5 10 10 0 6 -4 10 -10 10 -5 0
-10 -4 -10 -10z"/>
<path d="M3800 7153 c0 -6 8 -17 18 -24 16 -13 16 -13 2 6 -8 11 -16 22 -17
24 -2 2 -3 0 -3 -6z"/>
<path d="M3880 7075 c0 -20 16 -32 78 -54 54 -20 75 -23 150 -18 83 5 152 27
152 48 0 12 -13 12 -26 -1 -6 -6 -43 -17 -82 -25 -65 -14 -80 -14 -149 1 -43
9 -81 21 -85 27 -4 7 -8 8 -8 3 0 -6 -7 -1 -15 10 -8 10 -14 15 -15 9z"/>
<path d="M3870 6943 c0 -10 32 -95 57 -153 48 -109 70 -155 151 -315 166 -330
148 -278 156 -465 4 -91 13 -316 21 -500 8 -184 21 -573 30 -865 16 -548 21
-643 23 -515 3 95 27 472 48 744 17 216 15 287 -18 611 -5 55 -11 348 -13 650
-2 438 -6 573 -19 664 -14 104 -26 151 -26 108 0 -10 -4 -25 -9 -35 -5 -9 -24
-54 -41 -100 l-32 -82 -33 27 c-18 16 -47 39 -66 53 -18 14 -69 56 -113 93
-84 72 -116 93 -116 80z"/>
<path d="M10327 6496 c-34 -69 -101 -256 -94 -262 3 -3 24 12 47 32 42 38 91
106 143 195 l26 46 -26 -5 c-20 -4 -32 1 -48 22 l-21 27 -27 -55z"/>
<path d="M4104 6185 c-4 -9 -2 -21 4 -27 16 -16 47 -5 47 17 0 26 -42 34 -51
10z"/>
<path d="M10186 6119 c-3 -13 -20 -104 -37 -203 -17 -98 -40 -208 -50 -245
-15 -52 -19 -99 -19 -218 l0 -152 33 6 c81 16 82 16 88 69 4 27 14 80 23 118
16 67 16 69 -9 148 -36 115 -45 224 -30 371 12 115 12 158 1 106z"/>
<path d="M4134 5525 c-4 -9 -2 -21 4 -27 16 -16 47 -5 47 17 0 26 -42 34 -51
10z"/>
<path d="M690 5015 c0 -12 106 -186 142 -233 134 -173 345 -297 565 -333 l73
-12 0 -438 c0 -242 -2 -439 -5 -439 -2 0 -21 33 -41 72 -48 98 -133 227 -208
318 -205 252 -427 404 -746 513 -104 35 -337 87 -392 87 -16 0 -38 5 -49 10
-10 6 -19 8 -19 5 0 -9 91 -187 130 -255 94 -162 265 -359 410 -474 220 -174
477 -280 805 -334 l110 -18 3 -61 3 -62 -195 -3 c-193 -3 -196 -3 -220 -28
-25 -25 -31 -53 -28 -117 l2 -33 475 0 475 0 0 51 c0 56 -12 85 -44 111 -18
15 -46 18 -208 18 l-188 0 0 218 c0 249 -13 218 105 262 118 44 300 151 385
225 153 133 271 304 345 501 29 76 76 246 71 252 -2 2 -12 -1 -23 -7 -10 -6
-56 -26 -103 -45 -233 -95 -428 -239 -560 -415 -63 -84 -152 -260 -190 -376
-16 -49 -30 -83 -30 -75 0 8 0 223 0 478 l1 462 -36 0 -35 0 -1 -167 c0 -134
-3 -164 -12 -150 -60 93 -107 160 -132 188 -138 153 -303 244 -525 289 -114
22 -110 22 -110 15z"/>
<path d="M4805 4910 c27 -10 48 -37 40 -49 -4 -7 1 -8 11 -4 13 5 16 3 11 -10
-4 -10 -2 -16 6 -14 7 1 11 -6 11 -15 -1 -10 3 -15 9 -11 6 4 8 -2 5 -15 -4
-12 -2 -20 3 -16 20 12 6 48 -37 94 -26 28 -54 50 -63 49 -12 0 -11 -2 4 -9z"/>
<path d="M10085 4880 c-16 -4 -42 -11 -56 -14 -25 -5 -27 -11 -48 -138 -67
-401 -125 -604 -220 -766 -26 -45 -54 -121 -86 -232 -26 -91 -62 -206 -81
-257 -37 -103 -57 -220 -52 -303 l3 -55 175 -1 c185 0 261 -7 350 -29 111 -28
271 -37 642 -38 207 -1 380 2 384 6 4 4 0 32 -9 61 l-18 54 -52 -5 c-62 -6
-319 19 -434 42 l-81 17 -59 -39 c-72 -49 -142 -88 -146 -82 -2 2 -20 218 -41
479 -20 261 -42 498 -47 525 -21 106 -39 279 -49 495 -7 124 -14 240 -16 258
-5 33 -10 35 -59 22z"/>
<path d="M4167 4874 c-12 -12 -8 -42 6 -47 21 -8 39 8 35 29 -3 19 -29 30 -41
18z"/>
<path d="M3678 4780 c-38 -27 -68 -52 -68 -55 0 -8 16 3 83 54 50 38 64 51 55
51 -2 0 -33 -23 -70 -50z"/>
<path d="M3745 4800 c-3 -6 1 -7 9 -4 18 7 21 14 7 14 -6 0 -13 -4 -16 -10z"/>
<path d="M3790 4796 c0 -2 7 -7 16 -10 8 -3 12 -2 9 4 -6 10 -25 14 -25 6z"/>
<path d="M4846 4738 c3 -5 10 -6 15 -3 13 9 11 12 -6 12 -8 0 -12 -4 -9 -9z"/>
<path d="M4762 4690 c0 -14 2 -19 5 -12 2 6 2 18 0 25 -3 6 -5 1 -5 -13z"/>
<path d="M3925 4690 c-16 -7 -17 -9 -3 -9 9 -1 20 4 23 9 7 11 7 11 -20 0z"/>
<path d="M3955 4670 c-3 -5 -1 -10 4 -10 6 0 11 5 11 10 0 6 -2 10 -4 10 -3 0
-8 -4 -11 -10z"/>
<path d="M1040 3055 l0 -25 463 2 462 3 3 23 3 22 -465 0 -466 0 0 -25z"/>
<path d="M3454 3013 c4 -9 2 -48 -4 -87 -41 -280 -69 -559 -65 -666 2 -66 11
-107 38 -185 41 -116 67 -232 60 -267 -3 -18 -23 -35 -69 -62 -87 -50 -89 -61
-24 -183 29 -54 54 -100 56 -102 2 -2 20 11 41 29 83 73 163 85 237 35 l35
-24 27 32 c35 41 75 128 81 178 5 34 2 42 -23 61 -50 38 -84 79 -84 100 0 11
31 62 69 114 l69 93 7 198 c4 109 5 268 1 353 -3 85 -2 178 2 206 l9 51 -66
13 c-88 17 -262 71 -335 104 -69 31 -70 31 -62 9z"/>
<path d="M4560 2935 c-36 -7 -100 -13 -142 -14 -59 -1 -78 -4 -78 -15 0 -14
-42 -26 -90 -26 -16 0 -30 -5 -32 -10 -6 -18 20 -445 31 -522 6 -40 25 -147
42 -236 l31 -164 -22 -23 c-43 -46 -36 -131 18 -225 20 -34 26 -56 23 -87 -2
-39 -1 -43 26 -50 15 -4 75 -8 133 -8 96 0 109 2 150 27 25 14 64 29 88 33 23
4 42 8 42 10 0 2 -6 34 -14 72 -8 37 -14 104 -13 148 0 56 -6 104 -22 160 -34
121 -60 391 -60 637 -1 117 -4 234 -7 260 -7 54 -2 52 -104 33z"/>
<path d="M1046 2931 c-4 -5 -3 -16 0 -25 5 -14 54 -16 460 -16 l454 0 0 25 0
25 -454 0 c-263 0 -457 -4 -460 -9z"/>
<path d="M1055 2733 c5 -52 25 -370 55 -883 15 -267 18 -278 69 -333 52 -57
69 -61 287 -65 222 -5 289 4 340 43 70 53 70 52 109 673 19 310 35 576 35 593
l0 29 -450 0 -451 0 6 -57z"/>
<path d="M11056 1725 c6 -56 4 -64 -19 -91 -21 -25 -140 -229 -149 -256 -2 -4
-24 -12 -50 -16 -43 -9 -49 -7 -70 16 -31 33 -80 53 -115 46 -20 -4 -39 -22
-69 -68 -28 -41 -54 -69 -78 -80 -36 -17 -43 -30 -27 -55 11 -18 79 -17 211 3
58 8 137 18 177 22 l72 7 7 66 c4 43 14 75 27 91 l20 25 -6 -62 c-5 -63 -2
-68 26 -57 13 4 14 19 10 79 l-6 73 46 59 c24 32 48 68 51 80 9 30 -10 99 -40
142 l-25 36 7 -60z"/>
<path d="M9701 1539 c-237 -214 -271 -236 -279 -184 -7 46 -11 47 -54 16 -57
-41 -146 -71 -208 -71 -42 0 -56 -5 -77 -26 l-27 -27 23 -18 c21 -17 44 -19
266 -19 l243 0 36 49 c47 63 142 150 183 168 18 7 46 13 62 13 l30 0 3 -97 c3
-84 6 -98 21 -101 15 -3 17 7 17 100 0 92 2 105 20 116 27 17 60 85 60 125 0
23 -14 55 -43 100 l-43 65 -233 -209z"/>
</g>
</svg>
